<?xml version="1.0" encoding="UTF-8" standalone="no"?>
<!-- Created with Inkscape (http://www.inkscape.org/) -->

<svg
   width="48"
   height="48"
   viewBox="0 0 12.7 12.7"
   version="1.1"
   id="svg5"
   inkscape:version="1.2.2 (b0a8486541, 2022-12-01)"
   sodipodi:docname="formulae-wikiref.svg"
   xmlns:inkscape="http://www.inkscape.org/namespaces/inkscape"
   xmlns:sodipodi="http://sodipodi.sourceforge.net/DTD/sodipodi-0.dtd"
   xmlns="http://www.w3.org/2000/svg"
   xmlns:svg="http://www.w3.org/2000/svg">
  <sodipodi:namedview
     id="namedview7"
     pagecolor="#ffffff"
     bordercolor="#000000"
     borderopacity="0.25"
     inkscape:showpageshadow="2"
     inkscape:pageopacity="0.0"
     inkscape:pagecheckerboard="0"
     inkscape:deskcolor="#d1d1d1"
     inkscape:document-units="mm"
     showgrid="false"
     inkscape:zoom="15.279538"
     inkscape:cx="19.110526"
     inkscape:cy="22.808281"
     inkscape:window-width="1920"
     inkscape:window-height="1080"
     inkscape:window-x="1920"
     inkscape:window-y="0"
     inkscape:window-maximized="1"
     inkscape:current-layer="layer1" />
  <defs
     id="defs2">
    <linearGradient
       id="linearGradient972"
       inkscape:swatch="solid">
      <stop
         style="stop-color:#292929;stop-opacity:1;"
         offset="0"
         id="stop970" />
    </linearGradient>
    <inkscape:path-effect
       effect="spiro"
       id="path-effect267"
       is_visible="true"
       lpeversion="1" />
    <inkscape:path-effect
       effect="spiro"
       id="path-effect267-3"
       is_visible="true"
       lpeversion="1" />
  </defs>
  <g
     inkscape:label="Layer 1"
     inkscape:groupmode="layer"
     id="layer1">
    <path
       style="fill:none;fill-opacity:1;stroke:#1b173b;stroke-width:0.368;stroke-linecap:round;stroke-linejoin:round;stroke-dasharray:2.94400001, 0.736, 0.368, 0.736;stroke-opacity:1;paint-order:stroke fill markers;stroke-dashoffset:0"
       d="M 4.9579062,4.2033433 C 4.2103031,4.7319593 3.6549312,5.5265623 3.4154057,6.410289 3.1758803,7.2940157 3.253977,8.2603142 3.6323131,9.094105 4.0106493,9.9278958 4.6864199,10.622997 5.5092113,11.024693 6.3320027,11.426389 7.295715,11.531701 8.1858441,11.317189 9.0759732,11.102677 9.88592,10.569931 10.435406,9.8375305 10.984891,9.1051299 11.269842,8.1785043 11.226834,7.263903 11.183825,6.3493017 10.813176,5.4535053 10.197386,4.775901 9.5815956,4.0982967 8.7252295,3.6439081 7.8188983,3.5138734 7.7121989,3.50073 7.6005082,3.5422207 7.5271938,3.6208497 c -0.073314,0.078629 -0.1068941,0.1921881 -0.08958,0.2982907 0.017314,0.1061026 0.084686,0.2026292 0.1775737,0.2567535 0.092887,0.054124 0.2093854,0.065261 0.3113278,0.031125 C 8.0284572,4.1728823 8.1143833,4.0944099 8.1589743,3.9965878 8.2035654,3.8987657 8.2065798,3.783078 8.1685532,3.6825221 8.1305267,3.5819661 8.0522432,3.4975743 7.9554751,3.45074 7.858707,3.4039057 7.7445554,3.3947826 7.6411479,3.4241836 7.5377405,3.4535845 7.4458511,3.5209614 7.3854367,3.6098862 c -0.060414,0.088925 -0.089172,0.198614 -0.081703,0.3058601 0.00747,0.1072461 0.050857,0.2114458 0.1205314,0.2933175 0.069675,0.081872 0.1651185,0.1411819 0.2689863,0.1689125 0.1038678,0.02773 0.2156991,0.023986 0.3179756,-0.00914 C 8.1135033,4.3357195 8.2059664,4.2735133 8.2763898,4.1922849 8.3468132,4.1110565 8.3951569,4.0111241 8.4166904,3.9057969 8.438224,3.8004697 8.4330611,3.6899834 8.4033304,3.5866703 8.3437248,3.3800485 8.1844946,3.2071283 7.9879989,3.1197505 7.7915033,3.0323726 7.5616141,3.028744 7.3581808,3.0984596 7.1547474,3.1681753 6.9782722,3.3085623 6.8541955,3.484205 6.7301188,3.6598478 6.6573774,3.8694299 6.6332693,4.0831217 6.5850531,4.5105055 6.7283449,4.9406234 6.943603,5.3129748 7.1588611,5.6853263 7.4440816,6.01132 7.7107853,6.3487379 6.6571562,6.5279132 5.5749335,6.6533478 4.523186,6.4634391 3.9973123,6.3684848 3.4831192,6.1938134 3.0238488,5.9206281 2.5645784,5.6474428 2.1612606,5.2736975 1.8804568,4.8190451 1.5996531,4.3643928 1.4450165,3.8276087 1.472037,3.2939146 1.4990575,2.7602205 1.713117,2.2327473 2.087944,1.8518743 2.4627709,1.4710013 2.9994222,1.2464771 3.5329513,1.2765797 3.7997159,1.2916311 4.0632399,1.3686707 4.2941297,1.5031317 4.5250195,1.6375927 4.7226774,1.8295643 4.8604439,2.0584972 4.9961335,2.2893227 5.0707507,2.5562588 5.0704758,2.8240125 5.070201,3.0917662 4.9945582,3.3595644 4.851374,3.5858174 4.7081899,3.8120703 4.4975329,3.9956796 4.2522526,4.103056 4.0069724,4.2104323 3.7279242,4.2405632 3.4661669,4.1842145 3.2044095,4.1278658 2.9614962,3.9847151 2.7883189,3.7805051 2.6151417,3.5762951 2.5133683,3.3119072 2.5087616,3.0441931 2.504155,2.7764789 2.5975147,2.5075195 2.7699405,2.3026746 2.9423663,2.0978297 3.192891,1.9595334 3.4586055,1.9265505 3.7243206,1.8935673 4.0024314,1.9671449 4.2147963,2.1302201 4.4271612,2.2932954 4.5704798,2.544546 4.5990326,2.8107736 4.6275854,3.0770012 4.5399231,3.3543599 4.3607698,3.5533485 4.1816165,3.7523372 3.9132292,3.8688018 3.6456186,3.8600304 3.3780079,3.8512591 3.1164936,3.7162505 2.9572963,3.5009633 2.7980989,3.2856761 2.7458159,2.9942262 2.8237446,2.7380631 2.9016733,2.4819001 3.1090795,2.2679905 3.3638499,2.1856227 3.6186202,2.1032549 3.9137683,2.1561613 4.1218281,2.3246947 4.1389954,2.2352164 4.1878196,2.1540464 4.2494517,2.0869452 4.3110838,2.0198441 4.385321,1.9656359 4.4610439,1.9149691 5.0146282,1.5454682 5.6782063,1.3430617 6.3437744,1.3406929 c 0.6655681,-0.00237 1.33057,0.1953095 1.8867703,0.5608607 0.5562004,0.3655512 1.001463,0.8975713 1.2633171,1.5094691 0.2618542,0.6118978 0.3392941,1.3013232 0.2197158,1.9560655"
       id="path265"
       inkscape:path-effect="#path-effect267"
       inkscape:original-d="M 4.9579062,4.2033433 C 5.0553307,3.7719089 7.4586772,2.8656686 7.8188983,3.5138734 8.0317187,3.896837 4.5466824,2.5335801 4.1218281,2.3246947 3.3536235,1.9469964 4.6101891,1.585022 4.4610439,1.9149691 4.1331818,2.6402823 8.9776916,4.4528154 9.7135776,5.3670882"
       sodipodi:nodetypes="csssc" />
    <path
       style="fill:none;fill-opacity:1;stroke:#223b17;stroke-width:0.325;stroke-linecap:round;stroke-linejoin:round;stroke-dasharray:2.5999938, 0.65000109, 0.325, 0.65000109;stroke-dashoffset:0;stroke-opacity:1;paint-order:stroke fill markers"
       d="m 3.7359408,6.8367465 c -0.2267351,0.6833194 -0.09415,1.4750526 0.342831,2.0472252 0.4369815,0.5721725 1.1659008,0.9084711 1.8848042,0.8695845 0.022962,0.207551 0.1184235,0.4055888 0.2628845,0.5563728 0.1444611,0.150783 0.3366296,0.254133 0.5410972,0.296532 0.2044676,0.0424 0.4203948,0.02437 0.6168071,-0.04653 0.1964123,-0.0709 0.373055,-0.193975 0.5115212,-0.350281 C 8.1728184,9.8970405 8.2879742,9.4575089 8.2381751,9.042854 8.1883759,8.6281991 7.9828238,8.240329 7.695663,7.9370843 7.4085022,7.6338397 7.0430522,7.4116867 6.6551839,7.2568423 6.2673156,7.1019978 5.8563815,7.0121274 5.4436173,6.9485321 4.6180889,6.8213415 3.7699718,6.7950275 2.9761781,6.5350928 2.5794687,6.405652 2.1982424,6.2165932 1.8806824,5.9458739 1.5631225,5.6751545 1.3114184,5.3192041 1.2007293,4.9168595 1.0900401,4.5145149 1.1286136,4.0656565 1.3409189,3.7064076 1.4470715,3.5267832 1.5949746,3.3713145 1.7718905,3.2607067 1.9488063,3.1500989 2.1546783,3.085012 2.3632371,3.0789654 c 0.2085582,-0.00605 0.4192128,0.047604 0.5968443,0.1570577 0.1776314,0.1094538 0.321088,0.2748911 0.3996177,0.4681944 0.07853,0.1933034 0.090846,0.4136553 0.029535,0.6130897 C 3.3279235,4.5167416 3.1925075,4.6933456 3.0132235,4.8000711 2.8339394,4.9067965 2.6121174,4.9415002 2.4099635,4.8898584 2.2078096,4.8382166 2.0284677,4.6996801 1.9317175,4.5148221 1.8349673,4.3299641 1.8238307,4.1013975 1.906578,3.9098616 1.9893252,3.7183258 2.1655963,3.5687561 2.3691419,3.5229054 2.3554436,3.4425464 2.3660565,3.3588974 2.3943965,3.2824641 2.4227366,3.2060308 2.46838,3.136638 2.5234164,3.0765031 2.6334891,2.9562333 2.7783924,2.8741391 2.9236832,2.8001701 3.8843771,2.31648 4.9778139,2.0998239 6.050361,2.180643 c 1.0725471,0.080819 2.1211701,0.4588846 2.9985331,1.0810768 0.877363,0.6221922 1.5809839,1.4867508 2.0120009,2.4722017 0.431017,0.9854509 0.58821,2.089006 0.449494,3.1556113"
       id="path265-6"
       inkscape:path-effect="#path-effect267-3"
       inkscape:original-d="M 3.7359408,6.8367465 C 3.8952078,6.075718 5.3746943,8.6101561 5.963576,9.7535562 6.3114886,10.429084 3.0636827,3.8913686 2.3691419,3.5229054 1.1133009,2.8566647 3.1675019,2.2181602 2.9236832,2.8001701 2.3877026,4.079586 10.307382,7.2768026 11.510389,8.8895328"
       sodipodi:nodetypes="csssc" />
  </g>
</svg>
