<?xml version="1.0" encoding="UTF-8" standalone="no"?>
<!-- Created with Inkscape (http://www.inkscape.org/) -->

<svg
   width="210mm"
   height="297mm"
   viewBox="0 0 210 297"
   version="1.1"
   id="svg5"
   inkscape:version="1.2.2 (b0a8486541, 2022-12-01)"
   sodipodi:docname="logo.svg"
   xmlns:inkscape="http://www.inkscape.org/namespaces/inkscape"
   xmlns:sodipodi="http://sodipodi.sourceforge.net/DTD/sodipodi-0.dtd"
   xmlns="http://www.w3.org/2000/svg"
   xmlns:svg="http://www.w3.org/2000/svg">
  <sodipodi:namedview
     id="namedview7"
     pagecolor="#000000"
     bordercolor="#000000"
     borderopacity="0.25"
     inkscape:showpageshadow="2"
     inkscape:pageopacity="0"
     inkscape:pagecheckerboard="0"
     inkscape:deskcolor="#d1d1d1"
     inkscape:document-units="mm"
     showgrid="false"
     inkscape:zoom="0.67526655"
     inkscape:cx="319.87368"
     inkscape:cy="575.32836"
     inkscape:window-width="1920"
     inkscape:window-height="1080"
     inkscape:window-x="1920"
     inkscape:window-y="0"
     inkscape:window-maximized="1"
     inkscape:current-layer="layer2" />
  <defs
     id="defs2">
    <inkscape:path-effect
       effect="spiro"
       id="path-effect2490"
       is_visible="true"
       lpeversion="1" />
  </defs>
  <g
     inkscape:label="Layer 1"
     inkscape:groupmode="layer"
     id="layer1" />
  <g
     inkscape:groupmode="layer"
     id="layer2"
     inkscape:label="bg"
     transform="translate(-17.446667,-9.6158105)">
    <path
       style="fill:none;fill-opacity:1;stroke:#b8b7ff;stroke-width:7.239;stroke-linecap:round;stroke-linejoin:miter;stroke-dasharray:none;stroke-opacity:1;paint-order:stroke fill markers"
       d="m 60.255764,233.55655 c 7.30997,0.14277 13.67987,-5.1168 19.01067,-9.31565 20.345698,-16.02548 27.347016,-24.94245 45.390406,-49.82335 8.1838,-11.28504 15.26068,-23.3532 22.16471,-35.46358 12.76101,-22.38405 15.45123,-32.61019 20.48668,-59.621432 0.533,-2.85916 -0.36942,-5.80509 -0.55412,-8.70764"
       id="path5342" />
    <path
       style="fill:none;fill-opacity:1;stroke:#ffcbcb;stroke-width:7.239;stroke-linecap:round;stroke-linejoin:miter;stroke-dasharray:none;stroke-opacity:1;paint-order:stroke fill markers"
       d="m 75.663844,244.82588 c 7.30997,0.14277 13.67987,-5.1168 19.01067,-9.31565 20.345596,-16.02548 27.346926,-24.94245 45.390336,-49.82335 8.1838,-11.28504 15.26068,-23.3532 22.16471,-35.46356 12.76101,-22.3841 15.45123,-32.61025 20.48668,-59.621481 0.533,-2.85916 -0.36942,-5.80509 -0.55412,-8.70764"
       id="path5342-0" />
    <path
       style="fill:none;fill-opacity:1;stroke:#ffffff;stroke-width:7.239;stroke-linecap:round;stroke-linejoin:miter;stroke-dasharray:none;stroke-opacity:1;paint-order:stroke fill markers"
       d="m 67.693652,239.75151 c 7.30997,0.14277 13.67987,-5.1168 19.01067,-9.31565 20.345548,-16.02548 27.346848,-24.94245 45.390148,-49.82335 8.18376,-11.28504 15.26063,-23.35313 22.16466,-35.46342 12.76101,-22.38404 15.45123,-32.61018 20.48668,-59.621417 0.533,-2.85916 -0.36942,-5.80509 -0.55412,-8.70764"
       id="path5342-0-2" />
  </g>
  <g
     inkscape:groupmode="layer"
     id="layer3"
     inkscape:label="fg"
     style="display:inline">
    <rect
       style="fill:#ffffff;fill-opacity:1;stroke:#ffffff;stroke-width:16.7811;stroke-linecap:round;stroke-linejoin:miter;stroke-dasharray:none;stroke-opacity:1;paint-order:stroke fill markers"
       id="rect2174"
       width="1.7767819"
       height="182.93845"
       x="30.218811"
       y="81.060127"
       transform="matrix(1,0,0.47559902,0.87966219,0,0)" />
    <rect
       style="fill:#030303;fill-opacity:1;stroke:#ffffff;stroke-width:5.70143;stroke-linecap:round;stroke-linejoin:miter;stroke-dasharray:none;stroke-opacity:1;paint-order:stroke fill markers"
       id="rect2176"
       width="11.081828"
       height="4.3860898"
       x="23.723555"
       y="76.558289"
       transform="matrix(1,0,0.48335165,0.87542629,0,0)" />
    <rect
       style="fill:#030303;fill-opacity:1;stroke:#ffffff;stroke-width:5.70143;stroke-linecap:round;stroke-linejoin:miter;stroke-dasharray:none;stroke-opacity:1;paint-order:stroke fill markers"
       id="rect2176-6"
       width="11.081828"
       height="4.3860898"
       x="23.788496"
       y="86.587952"
       transform="matrix(1,0,0.48335165,0.87542629,0,0)" />
    <rect
       style="fill:#030303;fill-opacity:1;stroke:#ffffff;stroke-width:5.70143;stroke-linecap:round;stroke-linejoin:miter;stroke-dasharray:none;stroke-opacity:1;paint-order:stroke fill markers"
       id="rect2176-7"
       width="11.081828"
       height="4.3860898"
       x="23.796431"
       y="96.365051"
       transform="matrix(1,0,0.48335165,0.87542629,0,0)" />
    <rect
       style="fill:#030303;fill-opacity:1;stroke:#ffffff;stroke-width:5.70143;stroke-linecap:round;stroke-linejoin:miter;stroke-dasharray:none;stroke-opacity:1;paint-order:stroke fill markers"
       id="rect2176-6-5"
       width="11.081828"
       height="4.3860898"
       x="23.861372"
       y="106.39472"
       transform="matrix(1,0,0.48335165,0.87542629,0,0)" />
    <rect
       style="fill:#030303;fill-opacity:1;stroke:#ffffff;stroke-width:5.70143;stroke-linecap:round;stroke-linejoin:miter;stroke-dasharray:none;stroke-opacity:1;paint-order:stroke fill markers"
       id="rect2176-3"
       width="11.081828"
       height="4.3860898"
       x="24.00128"
       y="116.58552"
       transform="matrix(1,0,0.48335165,0.87542629,0,0)" />
    <rect
       style="fill:#030303;fill-opacity:1;stroke:#ffffff;stroke-width:5.70143;stroke-linecap:round;stroke-linejoin:miter;stroke-dasharray:none;stroke-opacity:1;paint-order:stroke fill markers"
       id="rect2176-6-56"
       width="11.081828"
       height="4.3860898"
       x="24.066206"
       y="126.61519"
       transform="matrix(1,0,0.48335165,0.87542629,0,0)" />
    <rect
       style="fill:#030303;fill-opacity:1;stroke:#ffffff;stroke-width:5.70143;stroke-linecap:round;stroke-linejoin:miter;stroke-dasharray:none;stroke-opacity:1;paint-order:stroke fill markers"
       id="rect2176-7-2"
       width="11.081828"
       height="4.3860898"
       x="24.074156"
       y="136.3923"
       transform="matrix(1,0,0.48335165,0.87542629,0,0)" />
    <rect
       style="fill:#030303;fill-opacity:1;stroke:#ffffff;stroke-width:5.70143;stroke-linecap:round;stroke-linejoin:miter;stroke-dasharray:none;stroke-opacity:1;paint-order:stroke fill markers"
       id="rect2176-6-5-9"
       width="11.081828"
       height="4.3860898"
       x="24.139097"
       y="146.42198"
       transform="matrix(1,0,0.48335165,0.87542629,0,0)" />
    <rect
       style="fill:#030303;fill-opacity:1;stroke:#ffffff;stroke-width:5.70143;stroke-linecap:round;stroke-linejoin:miter;stroke-dasharray:none;stroke-opacity:1;paint-order:stroke fill markers"
       id="rect2176-1"
       width="11.081828"
       height="4.3860898"
       x="24.5119"
       y="156.36964"
       transform="matrix(1,0,0.48335165,0.87542629,0,0)" />
    <rect
       style="fill:#030303;fill-opacity:1;stroke:#ffffff;stroke-width:5.70143;stroke-linecap:round;stroke-linejoin:miter;stroke-dasharray:none;stroke-opacity:1;paint-order:stroke fill markers"
       id="rect2176-6-2"
       width="11.081828"
       height="4.3860898"
       x="24.576841"
       y="166.39926"
       transform="matrix(1,0,0.48335165,0.87542629,0,0)" />
    <rect
       style="fill:#030303;fill-opacity:1;stroke:#ffffff;stroke-width:5.70143;stroke-linecap:round;stroke-linejoin:miter;stroke-dasharray:none;stroke-opacity:1;paint-order:stroke fill markers"
       id="rect2176-7-7"
       width="11.081828"
       height="4.3860898"
       x="24.584791"
       y="176.17624"
       transform="matrix(1,0,0.48335165,0.87542629,0,0)" />
    <rect
       style="fill:#030303;fill-opacity:1;stroke:#ffffff;stroke-width:5.70143;stroke-linecap:round;stroke-linejoin:miter;stroke-dasharray:none;stroke-opacity:1;paint-order:stroke fill markers"
       id="rect2176-6-5-0"
       width="11.081828"
       height="4.3860898"
       x="24.649717"
       y="186.20587"
       transform="matrix(1,0,0.48335165,0.87542629,0,0)" />
    <rect
       style="fill:#030303;fill-opacity:1;stroke:#ffffff;stroke-width:5.70143;stroke-linecap:round;stroke-linejoin:miter;stroke-dasharray:none;stroke-opacity:1;paint-order:stroke fill markers"
       id="rect2176-3-9"
       width="11.081828"
       height="4.3860898"
       x="24.789625"
       y="196.39667"
       transform="matrix(1,0,0.48335165,0.87542629,0,0)" />
    <rect
       style="fill:#030303;fill-opacity:1;stroke:#ffffff;stroke-width:5.70143;stroke-linecap:round;stroke-linejoin:miter;stroke-dasharray:none;stroke-opacity:1;paint-order:stroke fill markers"
       id="rect2176-6-56-3"
       width="11.081828"
       height="4.3860898"
       x="24.854567"
       y="206.42635"
       transform="matrix(1,0,0.48335165,0.87542629,0,0)" />
    <rect
       style="fill:#030303;fill-opacity:1;stroke:#ffffff;stroke-width:5.70143;stroke-linecap:round;stroke-linejoin:miter;stroke-dasharray:none;stroke-opacity:1;paint-order:stroke fill markers"
       id="rect2176-7-2-6"
       width="11.081828"
       height="4.3860898"
       x="24.862501"
       y="216.20343"
       transform="matrix(1,0,0.48335165,0.87542629,0,0)" />
    <rect
       style="fill:#030303;fill-opacity:1;stroke:#ffffff;stroke-width:5.70143;stroke-linecap:round;stroke-linejoin:miter;stroke-dasharray:none;stroke-opacity:1;paint-order:stroke fill markers"
       id="rect2176-6-5-9-0"
       width="11.081828"
       height="4.3860898"
       x="24.927443"
       y="226.23311"
       transform="matrix(1,0,0.48335165,0.87542629,0,0)" />
    <rect
       style="fill:#030303;fill-opacity:1;stroke:#ffffff;stroke-width:5.70143;stroke-linecap:round;stroke-linejoin:miter;stroke-dasharray:none;stroke-opacity:1;paint-order:stroke fill markers"
       id="rect2176-1-6"
       width="11.081828"
       height="4.3860898"
       x="24.717756"
       y="236.06638"
       transform="matrix(1,0,0.48335165,0.87542629,0,0)" />
    <rect
       style="fill:#030303;fill-opacity:1;stroke:#ffffff;stroke-width:5.70143;stroke-linecap:round;stroke-linejoin:miter;stroke-dasharray:none;stroke-opacity:1;paint-order:stroke fill markers"
       id="rect2176-6-2-2"
       width="11.081828"
       height="4.3860898"
       x="24.782682"
       y="246.09586"
       transform="matrix(1,0,0.48335165,0.87542629,0,0)" />
    <rect
       style="fill:#030303;fill-opacity:1;stroke:#ffffff;stroke-width:5.70143;stroke-linecap:round;stroke-linejoin:miter;stroke-dasharray:none;stroke-opacity:1;paint-order:stroke fill markers"
       id="rect2176-7-7-6"
       width="11.081828"
       height="4.3860898"
       x="24.790632"
       y="255.87277"
       transform="matrix(1,0,0.48335165,0.87542629,0,0)" />
    <rect
       style="fill:#030303;fill-opacity:1;stroke:#ffffff;stroke-width:5.70143;stroke-linecap:round;stroke-linejoin:miter;stroke-dasharray:none;stroke-opacity:1;paint-order:stroke fill markers"
       id="rect2176-6-5-0-1"
       width="11.081828"
       height="4.3860898"
       x="24.855574"
       y="265.9024"
       transform="matrix(1,0,0.48335165,0.87542629,0,0)" />
  </g>
</svg>
