<?xml version="1.0" encoding="UTF-8" standalone="no"?>
<!-- Created with Inkscape (http://www.inkscape.org/) -->

<svg
   width="48"
   height="48"
   viewBox="0 0 12.7 12.7"
   version="1.1"
   id="svg5265"
   inkscape:version="1.2.2 (b0a8486541, 2022-12-01)"
   sodipodi:docname="source_code.svg"
   inkscape:export-filename="source_code.png"
   inkscape:export-xdpi="96"
   inkscape:export-ydpi="96"
   xmlns:inkscape="http://www.inkscape.org/namespaces/inkscape"
   xmlns:sodipodi="http://sodipodi.sourceforge.net/DTD/sodipodi-0.dtd"
   xmlns="http://www.w3.org/2000/svg"
   xmlns:svg="http://www.w3.org/2000/svg">
  <sodipodi:namedview
     id="namedview5267"
     pagecolor="#ffffff"
     bordercolor="#000000"
     borderopacity="0.25"
     inkscape:showpageshadow="2"
     inkscape:pageopacity="0.0"
     inkscape:pagecheckerboard="0"
     inkscape:deskcolor="#d1d1d1"
     inkscape:document-units="mm"
     showgrid="false"
     inkscape:zoom="10.804265"
     inkscape:cx="23.416679"
     inkscape:cy="23.555513"
     inkscape:window-width="1920"
     inkscape:window-height="1080"
     inkscape:window-x="1920"
     inkscape:window-y="0"
     inkscape:window-maximized="1"
     inkscape:current-layer="layer1" />
  <defs
     id="defs5262">
    <rect
       x="3.2416534"
       y="5.2163894"
       width="40.528474"
       height="35.867551"
       id="rect5440" />
  </defs>
  <g
     inkscape:label="Layer 1"
     inkscape:groupmode="layer"
     id="layer1">
    <path
       style="fill:none;fill-opacity:0.998259;stroke:#1c316f;stroke-width:0.4;stroke-opacity:1;paint-order:markers stroke fill;stroke-linecap:square"
       d="M 1.1584164,1.9377073 C 1.145077,1.8960184 1.2442819,1.8293804 1.2295571,1.7706854 1.2116664,1.6993711 1.0785341,1.7292662 1.053251,1.734497 0.86181344,1.7741036 0.71162235,2.0098736 0.76249447,2.2021583 0.8013707,2.3491013 0.84682265,2.4246313 0.99448026,2.4332047 1.1197923,2.4404806 1.235278,2.371703 1.3470985,2.3274241"
       id="path9468" />
    <path
       style="fill:none;fill-opacity:0.998259;stroke:#1c316f;stroke-width:0.4;stroke-opacity:1;paint-order:markers stroke fill;stroke-linecap:square"
       d="m 2.0616078,0.68782789 c 0.00206,0.20599336 0.00401,0.41198791 0.00618,0.61798011 0.00298,0.2830103 0.010942,0.5660062 0.00928,0.8490273 -3.991e-4,0.067931 -0.0089,0.1355952 -0.015461,0.2032095 -0.00272,0.02801 -0.00132,0.057635 -0.012376,0.083511 -0.00621,0.014536 -0.00422,-0.031556 -0.00309,-0.047323 0.00301,-0.041965 0.00651,-0.084158 0.015467,-0.1252666 0.022368,-0.1026641 0.2008834,-0.6213711 0.3773581,-0.4899304 0.1574045,0.117237 0.191773,0.3479276 0.191773,0.5289026 0,0.0092 -0.036509,0.1597993 -0.018558,0.1113474"
       id="path9470" />
    <path
       style="fill:none;fill-opacity:0.998259;stroke:#1c316f;stroke-width:0.4;stroke-opacity:1;paint-order:markers stroke fill;stroke-linecap:square"
       d="M 3.8215898,2.1075123 C 3.8154038,1.9989482 3.8813684,1.8572377 3.8030319,1.78182 3.6319343,1.6170973 3.1273514,2.2608233 3.4596927,2.4554746 c 0.1313616,0.076938 0.3062965,-0.048775 0.3557092,-0.1670219 0.023268,-0.055683 -0.00733,-0.239755 0.00619,-0.1809404 0.019563,0.0851 -0.021834,0.1813249 0.012369,0.2616679 0.081588,0.1916554 0.2605956,0.1955886 0.4299469,0.2032095"
       id="path9472" />
    <path
       style="fill:none;fill-opacity:0.998259;stroke:#1c316f;stroke-width:0.4;stroke-opacity:1;paint-order:markers stroke fill;stroke-linecap:square"
       d="m 4.6598226,1.8569798 c 0.011343,0.061241 0.019598,0.1231354 0.034025,0.1837242 C 4.7107256,2.111583 4.8181251,2.4424145 4.82685,2.469393 4.84708,2.531944 4.876033,2.6263508 4.885621,2.6197127 4.8878693,2.618157 4.9727939,2.2015328 4.987695,2.1492676 5.1188193,1.689345 5.4616614,1.8626185 5.7114831,2.1047285"
       id="path9474" />
    <path
       style="fill:none;fill-opacity:0.998259;stroke:#6f1c57;stroke-width:0.4;stroke-opacity:1;paint-order:markers stroke fill;stroke-linecap:square"
       d="m 7.0600823,0.73793468 c 0,0.0510342 4.763e-4,0.10207061 0,0.15310273 -0.00238,0.26054789 0.00204,0.51913639 0.00928,0.77943509 4.234e-4,0.014876 0.010684,0.038905 -0.00309,0.044539 -0.013428,0.00549 -0.020622,-0.020414 -0.030934,-0.030621"
       id="path9484" />
    <path
       style="fill:none;fill-opacity:0.998259;stroke:#6f1c57;stroke-width:0.4;stroke-opacity:1;paint-order:markers stroke fill;stroke-linecap:square"
       d="M 7.5426119,1.1527053 C 7.2178287,1.2147492 6.8459323,1.1949934 6.534255,1.1248684"
       id="path9486" />
    <path
       style="fill:none;fill-opacity:0.998259;stroke:#6f1c57;stroke-width:0.4;stroke-opacity:1;paint-order:markers stroke fill;stroke-linecap:square"
       d="M 7.6539594,0.82701293 C 7.4344275,1.0119481 7.2201454,1.2026448 7.0044087,1.3921032 6.9917722,1.4032006 6.7027403,1.6713128 6.713652,1.5730428"
       id="path9488" />
    <path
       style="fill:none;fill-opacity:0.998259;stroke:#6f1c57;stroke-width:0.4;stroke-opacity:1;paint-order:markers stroke fill;stroke-linecap:square"
       d="M 7.4467193,1.6676887 C 7.127672,1.413749 6.9682036,0.95627721 6.6363235,0.72401625"
       id="path9490" />
    <path
       style="fill:none;fill-opacity:0.998259;stroke:#6f331c;stroke-width:0.4;stroke-opacity:1;paint-order:markers stroke fill;stroke-linecap:square"
       d="M 8.6870621,2.8702452 C 8.3898085,2.8404632 8.0906137,2.8428505 7.7931496,2.8173545"
       id="path9492" />
    <path
       style="fill:none;fill-opacity:0.998259;stroke:#406f1c;stroke-width:0.4;stroke-opacity:1;paint-order:markers stroke fill;stroke-linecap:square"
       d="m 9.8129544,1.6760395 c -0.048877,0.2905609 1.19e-5,0.5926687 -0.040207,0.8824318"
       id="path9500" />
    <path
       style="fill:none;fill-opacity:0.998259;stroke:#406f1c;stroke-width:0.4;stroke-opacity:1;paint-order:markers stroke fill;stroke-linecap:square"
       d="M 10.245992,2.185456 C 9.9694255,2.1831806 9.6940771,2.1399489 9.4201294,2.1047285 9.3296617,2.0930974 9.2554551,2.0724755 9.1664945,2.0991617"
       id="path9504" />
    <path
       style="fill:none;fill-opacity:0.998259;stroke:#1c316f;stroke-width:0.4;stroke-opacity:1;paint-order:markers stroke fill;stroke-linecap:square"
       d="m 11.006902,1.5869612 c 0.03505,-0.082583 0.04339,-0.1826954 0.105166,-0.2477487 0.137034,-0.144293 0.520195,-0.1056629 0.64955,0.038972 0.151303,0.1691746 -0.444141,0.647656 -0.541294,0.759949 -0.05116,0.059135 -0.09883,0.1214953 -0.142281,0.1865081 -0.133205,0.1993195 -0.449781,0.7393812 -0.129912,0.9241863 0.108536,0.062707 0.248622,0.055331 0.361892,0.013917 0.115506,-0.04223 0.142721,-0.2426486 0.111353,-0.3396107 -0.03322,-0.1026721 -0.08341,-0.1999109 -0.13919,-0.2922865 -0.153488,-0.254169 -0.815355,-0.7835199 -0.402104,-1.0828575 0.03582,-0.025943 0.08265,0.041156 0.12682,0.038971 0.146893,-0.00726 0.290753,-0.044539 0.436129,-0.066808"
       id="path9506" />
    <path
       style="fill:none;fill-opacity:0.998259;stroke:#6f1c57;stroke-width:0.4;stroke-opacity:1;paint-order:markers stroke fill;stroke-linecap:square"
       d="m 1.4924707,4.2426067 c -0.067784,0.3389968 -0.048948,0.6823524 -0.021649,1.0243999 0.00759,0.095136 0.04023,0.3423288 0.030928,0.4008515"
       id="path9512" />
    <path
       style="fill:none;fill-opacity:0.998259;stroke:#6f1c57;stroke-width:0.4;stroke-opacity:1;paint-order:markers stroke fill;stroke-linecap:square"
       d="M 2.1791432,4.9301796 C 1.7049496,4.9710342 1.2172625,4.8703862 0.74703352,4.9106936"
       id="path9516" />
    <path
       style="fill:none;fill-opacity:0.998259;stroke:#1c316f;stroke-width:0.4;stroke-opacity:1;paint-order:markers stroke fill;stroke-linecap:square"
       d="m 3.6514659,4.6963496 c 0.036087,-0.027837 0.1360995,-0.047424 0.1082622,-0.083511 -0.027837,-0.036087 -0.062731,0.081496 -0.1082622,0.083511 -0.092333,0.00409 -0.1769751,-0.059406 -0.2691019,-0.066809 -0.02877,-0.0023 -0.054149,0.021765 -0.077322,0.038971 -0.093918,0.069731 -0.067952,0.1661475 -0.00928,0.2561 0.1011211,0.1550472 0.2950109,0.2633353 0.4268557,0.386933 0.042711,0.040039 0.074602,0.080405 0.021648,0.1364012 -0.2048796,0.2166562 -1.0734532,0.038805 -0.392825,-0.066808"
       id="path9518" />
    <path
       style="fill:none;fill-opacity:0.998259;stroke:#1c316f;stroke-width:0.4;stroke-opacity:1;paint-order:markers stroke fill;stroke-linecap:square"
       d="m 4.7309632,3.7331909 c -0.035055,0.087222 -0.091064,0.1687277 -0.1051655,0.2616671 -0.021574,0.1421968 -0.00262,0.2876724 0,0.4314729 0.00739,0.4070149 0.066678,0.8290259 -0.046395,1.2276088 -0.00329,0.011605 -0.00249,-0.024381 0,-0.036188 0.00791,-0.037702 0.018529,-0.074878 0.030934,-0.1113476 0.056571,-0.1663083 0.1189443,-0.4653724 0.3216844,-0.5094157 0.030239,-0.00657 0.067348,-0.020397 0.09279,-0.00278 0.061818,0.042796 0.1124836,0.1037902 0.148469,0.1698056 0.034178,0.062699 0.016571,0.4919786 -0.034025,0.5261189 -0.028459,0.019203 -0.00335,-0.068828 0,-0.1029967"
       id="path9520" />
    <path
       style="fill:none;fill-opacity:0.998259;stroke:#1c316f;stroke-width:0.4;stroke-opacity:1;paint-order:markers stroke fill;stroke-linecap:square"
       d="M 5.9496509,4.7158356 C 5.8763143,4.831907 5.840537,4.8634438 5.8135577,4.9969888 5.7841641,5.1424834 5.7574891,5.2845456 5.8073691,5.4284617 5.8725096,5.6164045 6.1025661,5.7186443 6.243498,5.5425921 6.32354,5.4426037 6.4610627,5.1848689 6.3981551,5.0415271 6.2931656,4.8022975 6.0536433,4.7858272 5.86614,4.9190444"
       id="path9522" />
    <path
       style="fill:none;fill-opacity:0.998259;stroke:#1c316f;stroke-width:0.4;stroke-opacity:1;paint-order:markers stroke fill;stroke-linecap:square"
       d="m 7.2271095,4.8661552 c -0.00297,0.1527114 -0.0083,0.2297782 0.00928,0.3925007 0.00608,0.056293 0.020706,0.1113321 0.030934,0.1670211 0.012674,0.069011 -0.012255,0.1631421 0.043304,0.2059935 0.00956,0.00737 0.033129,-0.1428401 0.034025,-0.1475351 0.02873,-0.1505726 0.070969,-0.572687 0.2103308,-0.665303 0.1680948,-0.1117116 0.3579786,0.053246 0.4887116,0.1419672 0.030666,0.020812 0.092796,0.02418 0.092796,0.061242 0,0.00978 -0.00619,0.018558 -0.00928,0.027837"
       id="path9524" />
    <path
       style="fill:none;fill-opacity:0.998259;stroke:#1c316f;stroke-width:0.4;stroke-opacity:1;paint-order:markers stroke fill;stroke-linecap:square"
       d="M 9.1974285,4.0811524 C 9.0558283,4.3627883 8.984894,4.6571661 8.9159508,4.9663675 c -0.00365,0.016375 -0.062378,0.336917 -0.055674,0.4231219 0.018809,0.2418419 0.1409676,0.1626854 0.3278725,0.091861 0.1391319,-0.052722 0.2556512,-0.1215213 0.204143,-0.07516"
       id="path9526" />
    <path
       style="fill:none;fill-opacity:0.998259;stroke:#1c316f;stroke-width:0.4;stroke-opacity:1;paint-order:markers stroke fill;stroke-linecap:square"
       d="M 9.4015715,4.6963496 C 9.0914468,4.6532977 8.8118158,4.5245078 8.49838,4.5154093"
       id="path9528" />
    <path
       style="fill:none;fill-opacity:0.998259;stroke:#6f1c57;stroke-width:0.4;stroke-opacity:1;paint-order:markers stroke fill;stroke-linecap:square"
       d="m 10.564585,3.9614535 c 0,0.086295 0.0031,0.1726462 0,0.258884 -0.01077,0.2961756 -0.04814,0.816833 -0.02784,0.6708701"
       id="path9530" />
    <path
       style="fill:none;fill-opacity:0.998259;stroke:#6f1c57;stroke-width:0.4;stroke-opacity:1;paint-order:markers stroke fill;stroke-linecap:square"
       d="m 10.951223,4.3372526 c -0.131662,0.00794 -0.795011,0.1325721 -0.872258,0.016703"
       id="path9532" />
    <path
       style="fill:none;fill-opacity:0.998259;stroke:#6f1c57;stroke-width:0.4;stroke-linecap:square;stroke-opacity:1;paint-order:markers stroke fill"
       d="M 10.953912,4.8100436 C 10.671088,4.4617487 10.365901,4.1257829 10.050721,3.8051296"
       id="path9534" />
    <path
       style="fill:none;fill-opacity:0.998259;stroke:#6f1c57;stroke-width:0.4;stroke-opacity:1;paint-order:markers stroke fill;stroke-linecap:square"
       d="m 10.889361,3.9865064 c -0.330677,0.2987728 -0.580373,0.6693784 -0.86607,1.0076979"
       id="path9536" />
    <path
       style="fill:none;fill-opacity:0.998259;stroke:#6f5c1c;stroke-width:0.4;stroke-opacity:1;paint-order:markers stroke fill;stroke-linecap:square"
       d="m 11.52036,3.811134 c 0.296584,0.9067122 0.898668,1.5059837 0.389728,2.471921 -0.03833,0.072754 -0.34879,0.346841 -0.368079,0.3646639"
       id="path9538" />
    <path
       style="fill:none;fill-opacity:0.998259;stroke:#6f331c;stroke-width:0.4;stroke-opacity:1;paint-order:markers stroke fill;stroke-linecap:square"
       d="M 2.033765,8.6297113 C 1.6072532,8.6041213 2.108263,8.6332013 1.3440015,8.5963073 1.2429238,8.5914273 1.1417644,8.5874673 1.0408751,8.5796043 1.0107091,8.5772543 0.9769653,8.5815143 0.9511765,8.5656873 0.9411567,8.5595373 0.965613,8.5471293 0.9728313,8.5378503"
       id="path9540" />
    <path
       style="fill:none;fill-opacity:0.998259;stroke:#466f1c;stroke-width:0.4;stroke-opacity:1;paint-order:markers stroke fill;stroke-linecap:square"
       d="m 2.9864481,7.3881818 c 0.064955,0.066809 0.1222367,0.1420508 0.194864,0.2004271 0.051573,0.041454 0.5433192,0.2976436 0.5196454,0.3952838 C 3.6467995,8.2072603 3.2768585,8.3089757 3.1039834,8.376395 2.9741421,8.427032 2.920788,8.438149 2.9307745,8.44877 c 0.019868,0.02113 0.057738,0.00557 0.086607,0.00835"
       id="path9542" />
    <path
       style="fill:none;fill-opacity:0.998259;stroke:#466f1c;stroke-width:0.4;stroke-opacity:1;paint-order:markers stroke fill;stroke-linecap:square"
       d="m 4.570124,7.3213742 c 0.0556,0.1618875 0.022463,0.1358972 0.1360993,0.2393979 0.1389007,0.1265132 0.294095,0.236211 0.423753,0.3730146 C 5.3970814,8.2156124 4.5251568,8.450572 4.6288946,8.7772464"
       id="path9544" />
    <path
       style="fill:none;fill-opacity:0.998259;stroke:#1c316f;stroke-width:0.4;stroke-opacity:1;paint-order:markers stroke fill;stroke-linecap:square"
       d="M 6.5837408,6.85928 C 6.5476553,6.904747 6.4918465,6.9399882 6.4754844,6.9956811 6.3536062,7.4105266 6.3302115,7.7692225 6.2991782,8.1898862 c -0.00799,0.1082897 -0.060645,0.4196339 -0.00619,0.3256931 0.014433,-0.024895 0.024744,-0.051963 0.037116,-0.077944"
       id="path9552" />
    <path
       style="fill:none;fill-opacity:0.998259;stroke:#1c316f;stroke-width:0.4;stroke-opacity:1;paint-order:markers stroke fill;stroke-linecap:square"
       d="M 6.4507384,7.8669776 C 6.7813181,7.2051959 7.7730725,8.458006 7.0260574,8.5629021 6.8562727,8.5867437 6.7013647,8.5816928 6.5589948,8.4877425"
       id="path9554" />
    <path
       style="fill:none;fill-opacity:0.998259;stroke:#1c316f;stroke-width:0.4;stroke-opacity:1;paint-order:markers stroke fill;stroke-linecap:square"
       d="M 7.8735752,7.8948144 C 7.6349692,8.4370271 7.8897572,8.8254363 8.4117724,8.3596918 8.6108145,8.1821053 8.5793399,7.870876 8.2664003,7.86141 8.2106303,7.85972 8.1632953,7.904094 8.1117428,7.925436"
       id="path9556" />
    <path
       style="fill:none;fill-opacity:0.998259;stroke:#1c316f;stroke-width:0.4;stroke-opacity:1;paint-order:markers stroke fill;stroke-linecap:square"
       d="M 9.1200998,7.944922 C 8.7595122,8.1662504 8.8567145,8.7629549 9.3830134,8.5322808 9.8541376,8.3257894 9.8097839,7.8505105 9.2561933,7.9115176"
       id="path9558" />
    <path
       style="fill:none;fill-opacity:0.998259;stroke:#1c316f;stroke-width:0.4;stroke-opacity:1;paint-order:markers stroke fill;stroke-linecap:square"
       d="m 10.443953,8.262263 c 0.0828,-0.1370957 0.226464,-0.2101557 0.334054,-0.3229086 0.117132,-0.1227516 0.23496,-0.2455283 0.340243,-0.3785823 0.06315,-0.079809 0.280493,-0.4394316 0.170124,-0.5511726 -0.0832,-0.08423 -0.277054,0.1345682 -0.296939,0.1698059 -0.174644,0.3094884 -0.227148,0.5141569 -0.281477,0.8657289 -0.0138,0.089326 -0.101552,0.5495186 0.04021,0.6625198 0.259772,0.2070655 0.39638,-0.1566754 0.556762,-0.077943"
       id="path9562" />
    <path
       style="fill:none;fill-opacity:0.998259;stroke:#6f5c1c;stroke-width:0.4;stroke-opacity:1;paint-order:markers stroke fill;stroke-linecap:square"
       d="M 1.3904023,9.8573208 C 1.5200286,10.437377 1.7913536,11.226419 1.4182391,11.772503 1.3776198,11.831952 1.21527,12.0758 1.0903668,11.997982"
       id="path9564" />
    <path
       style="fill:none;fill-opacity:0.998259;stroke:#6f331c;stroke-width:0.4;stroke-opacity:1;paint-order:markers stroke fill;stroke-linecap:square"
       d="m 3.373085,11.858798 c -0.1577528,-0.01902 -1.005642,0.05498 -1.0547515,-0.03341"
       id="path9568" />
    <path
       style="fill:none;fill-opacity:0.998259;stroke:#6f1c57;stroke-width:0.4;stroke-opacity:1;paint-order:markers stroke fill;stroke-linecap:square"
       d="m 4.4030968,10.49757 c 0.00309,0.261687 0.01514,0.52325 0.012369,0.785001 -6.085e-4,0.05777 0.02746,0.150708 -0.040207,0.164239"
       id="path9570" />
    <path
       style="fill:none;fill-opacity:0.998259;stroke:#6f1c57;stroke-width:0.4;stroke-opacity:1;paint-order:markers stroke fill;stroke-linecap:square"
       d="m 4.9320211,10.962448 c -0.414084,0.04003 -0.8333322,-0.04493 -1.2465306,-0.01114"
       id="path9572" />
    <path
       style="fill:none;fill-opacity:0.998259;stroke:#1c316f;stroke-width:0.4;stroke-opacity:1;paint-order:markers stroke fill;stroke-linecap:square"
       d="m 5.6712704,10.530975 c -0.01134,-0.04083 -0.034019,-0.08011 -0.034019,-0.122483 0,-0.02067 0.1278287,-0.0084 0.1670272,-0.0028 0.1163968,0.01681 0.3770387,0.148085 0.4794324,0.04176 0.028729,-0.02983 0.0696,-0.121648 0.049492,-0.161456 -0.018555,-0.03673 -0.087175,0.06883 -0.1422873,0.267235 -0.105836,0.381004 -0.1188003,0.781243 -0.20724,1.166368 -0.013734,0.05981 -0.016566,0.124529 -0.046395,0.178157 -0.033369,0.05999 0.019624,-0.06161 0.052583,-0.139184"
       id="path9574" />
    <path
       style="fill:none;fill-opacity:0.998259;stroke:#1c316f;stroke-width:0.4;stroke-opacity:1;paint-order:markers stroke fill;stroke-linecap:square"
       d="M 6.5435339,11.212979 C 6.242687,11.211815 5.9445186,11.165656 5.6434336,11.165656"
       id="path9576" />
    <path
       style="fill:none;fill-opacity:0.998259;stroke:#466f1c;stroke-width:0.4;stroke-opacity:1;paint-order:markers stroke fill;stroke-linecap:square"
       d="m 8.2694911,10.697996 c -0.1912334,0.207009 -0.4584514,0.307029 -0.6928604,0.456527 -0.017031,0.01086 -0.1711137,0.109439 -0.1979549,0.150319 -0.114187,0.173912 0.5063527,0.314592 0.5258271,0.373015 9.79e-4,0.0029 -0.027823,0.02782 -0.027837,0.02784"
       id="path9578" />
    <path
       style="fill:none;fill-opacity:0.998259;stroke:#466f1c;stroke-width:0.4;stroke-opacity:1;paint-order:markers stroke fill;stroke-linecap:square"
       d="M 9.4201294,10.842748 C 9.2223962,11.03334 8.9522328,11.12582 8.721087,11.271437 c -0.00212,0.0013 -0.1722718,0.09939 -0.1670272,0.133617 0.016542,0.107962 0.4076395,0.256252 0.5010814,0.286721 0.026971,0.0088 0.090277,0.0012 0.080426,0.02784 -0.00842,0.02273 -0.027905,0.02946 -0.046401,0.03897"
       id="path9580" />
    <path
       style="fill:none;fill-opacity:0.998259;stroke:#1c316f;stroke-width:0.4;stroke-opacity:1;paint-order:markers stroke fill;stroke-linecap:square"
       d="m 10.561488,10.809343 c 0.04434,-0.07516 0.06282,-0.173632 0.133009,-0.225478 0.05244,-0.03873 0.129693,-0.01839 0.194864,-0.0167 0.272449,0.0071 0.287928,0.234406 0.182494,0.445391 -0.124329,0.248797 -0.258495,0.379488 -0.454687,0.573442 -0.115484,0.114167 -0.287991,0.222269 -0.244356,0.26445 0.106728,0.103169 0.660222,0.04501 0.816584,0.07516"
       id="path9582" />
  </g>
</svg>
